<svg width="30" height="30" viewBox="0 0 30 30" fill="none" xmlns="http://www.w3.org/2000/svg">
<path d="M18.0061 22.1316L20.7079 18.5336C19.9752 18.2656 19.2573 18.1103 18.7048 17.9908L18.6886 17.9872C18.3278 17.9088 18.017 17.8413 17.8638 17.7743C16.7849 17.3063 16.088 16.6118 15.7859 15.7071C18.7835 15.9298 20.1406 14.7364 20.2004 14.6823C20.2373 14.6489 20.2657 14.6073 20.2834 14.5608C20.301 14.5143 20.3074 14.4643 20.302 14.4149C20.2966 14.3655 20.2796 14.3181 20.2523 14.2765C20.225 14.235 20.1882 14.2004 20.145 14.1758C18.4152 13.1881 18.4152 9.77519 18.4152 8.48992C18.4152 4.8958 15.993 2.04655 12.8878 2.00189C12.8582 2.0009 12.8286 2.00027 12.7991 2C9.64855 2.01762 7.08471 4.87001 7.08471 8.35906C7.08471 9.64434 7.08471 13.0579 5.35492 14.045C5.31033 14.0709 5.27274 14.1072 5.24541 14.1509C5.21809 14.1947 5.20186 14.2444 5.19814 14.2958C5.19442 14.3472 5.20332 14.3987 5.22406 14.4459C5.2448 14.4931 5.27675 14.5345 5.31715 14.5665C5.40401 14.6338 7.32391 16.1022 9.68632 15.6561C9.37032 16.523 8.68294 17.1899 7.6355 17.6448C7.48379 17.7108 7.18164 17.7832 6.83166 17.8662C5.2328 18.2462 2.25602 18.9539 1.51073 21.7333C1.50002 21.7733 1.49729 21.815 1.5027 21.856C1.5081 21.897 1.52154 21.9365 1.54223 21.9723C1.58402 22.0446 1.65284 22.0974 1.73356 22.119C1.76754 22.1281 1.80245 22.1313 1.83688 22.129C1.85023 22.1307 1.86385 22.1316 1.87767 22.1316H18.0061Z" fill="white"/>
<path d="M23.7667 22.1199C23.7586 22.1221 23.7505 22.1239 23.7424 22.1255L23.9984 21.7845C24.0008 21.8084 24.0005 21.8326 23.9973 21.8566C23.992 21.8976 23.9786 21.9372 23.9579 21.973C23.9373 22.0089 23.9097 22.0403 23.8769 22.0655C23.8441 22.0907 23.8066 22.1092 23.7667 22.1199Z" fill="white"/>
<path d="M27.7575 15.4074C26.9064 14.7683 25.6982 14.9401 25.059 15.7912L28.1415 18.1059L28.1442 18.1023C28.7801 17.2513 28.6075 16.0457 27.7575 15.4074Z" fill="white"/>
<path d="M21.1975 27.353L18.1151 25.0384L24.5186 16.5107L27.601 18.8254L21.1975 27.353Z" fill="white"/>
<path d="M18.1151 25.0384L18.0412 28.3466L21.1975 27.353L18.1151 25.0384Z" fill="white"/>
</svg>
