<svg width="30" height="30" viewBox="0 0 30 30" fill="none" xmlns="http://www.w3.org/2000/svg">
<path fill-rule="evenodd" clip-rule="evenodd" d="M26 6C26 7.10449 25.1046 8 24 8C23.6994 8 23.4143 7.93359 23.1585 7.81445L19.9694 10.6494C19.9895 10.7637 20 10.8799 20 11C20 12.1045 19.1046 13 18 13C16.8954 13 16 12.1045 16 11L16.0015 10.9229L16.0065 10.8379L13.3519 9.47363C12.996 9.80078 12.5212 10 12 10C11.5701 10 11.172 9.86426 10.8459 9.63379L7.99176 11.8174C7.99719 11.8779 8 11.9385 8 12C8 13.1045 7.10455 14 6 14C4.89545 14 4 13.1045 4 12C4 10.8955 4.89545 10 6 10C6.29871 10 6.58215 10.0654 6.83673 10.1826L10.0154 7.75C10.1384 6.76367 10.98 6 12 6C12.9424 6 13.7326 6.65234 13.9443 7.5293L17.1631 9.18262C17.4177 9.06543 17.7012 9 18 9C18.239 9 18.4681 9.04199 18.6805 9.11914L22.0065 6.16309C22.0022 6.10938 22 6.05469 22 6C22 4.89551 22.8954 4 24 4C25.1046 4 26 4.89551 26 6ZM23 12C22.4477 12 22 12.4473 22 13V26H26V13C26 12.4473 25.5523 12 25 12H23ZM10 15C10 14.4473 10.4477 14 11 14H13C13.5523 14 14 14.4473 14 15V26H10V15ZM4 19C4 18.4473 4.44769 18 5 18H7C7.55231 18 8 18.4473 8 19V26H4V19ZM16 17C16 16.4473 16.4477 16 17 16H19C19.5523 16 20 16.4473 20 17V26H16V17Z" fill="#D9D9D9"/>
</svg>
